# xmcd
#
# Track frame offsets: 
#        182
#        11737
#        24030
#        37615
#        57350
#        69697
#        81885
#        96767
#        109070
#        123270
#        140620
#        152660
#        167572
#        183832
#        197562
#        210682
#        225657
#        237167
#        250930
#        270082
#
# Disc length: 3784 seconds
#
# Revision: 0
# Processed by: cddbd v1.4PL0 Copyright (c) Steve Scherf et al.
# Submitted via: ExactAudioCopy v0.90b4
#
DISCID=f80ec614
DTITLE=Blueberry Hill and Sheila G White - Step Forward: The Best of New
DTITLE=Country Line Dance
DYEAR=1996
DGENRE=Country
TTITLE0=My Baby Loves Me
TTITLE1=Dream Baby
TTITLE2=One More Last Chance
TTITLE3=On The Road
TTITLE4=Mercury Blues
TTITLE5=Wild One
TTITLE6=Achy Breaky Heart
TTITLE7=Live Until I Die
TTITLE8=Honey Open That Door
TTITLE9=You Make Me Feel Like a Man
TTITLE10=Chattahoochee
TTITLE11=One Step Forward
TTITLE12=Blue Roses
TTITLE13=Bootscootin' Boogie
TTITLE14=Ancient History
TTITLE15=Cotton Eye Joe
TTITLE16=When Will I Be Loved
TTITLE17=Love's Got a Hold On You
TTITLE18=I Swear
TTITLE19=Guitars and Cadillacs
EXTD=
EXTT0=
EXTT1=
EXTT2=
EXTT3=
EXTT4=
EXTT5=
EXTT6=
EXTT7=
EXTT8=
EXTT9=
EXTT10=
EXTT11=
EXTT12=
EXTT13=
EXTT14=
EXTT15=
EXTT16=
EXTT17=
EXTT18=
EXTT19=
PLAYORDER=
